<svg id="visual" viewBox="0 0 900 600" width="900" height="600" xmlns="http://www.w3.org/2000/svg" xmlns:xlink="http://www.w3.org/1999/xlink" version="1.1"><rect x="0" y="0" width="900" height="600" fill="#f4f2f3"></rect><g transform="translate(440.41533875791487 290.64432542118436)"><path d="M125.9 -222.6C163.1 -196.6 193.3 -162.8 206 -124.4C218.6 -86 213.8 -43 207.3 -3.8C200.8 35.5 192.6 71 182.1 113.1C171.6 155.3 158.8 204.1 128.1 236.3C97.3 268.6 48.7 284.3 14.3 259.5C-20 234.6 -40 169.3 -73.1 138.4C-106.1 107.4 -152.2 111 -174.7 93.7C-197.2 76.3 -196.1 38.2 -193.1 1.8C-190 -34.7 -185.1 -69.3 -158.8 -80.2C-132.6 -91 -85 -78 -55 -108.1C-25 -138.3 -12.5 -211.7 15.9 -239.2C44.3 -266.8 88.7 -248.6 125.9 -222.6" fill="#2810dd"></path></g></svg>